 <svg  version="1.0" xmlns="http://www.w3.org/2000/svg"  width="30px" height="30px" viewBox="0 0 900.000000 900.000000"  preserveAspectRatio="xMidYMid meet">  <g transform="translate(0.000000,900.000000) scale(0.100000,-0.100000)" fill="#211eb8" stroke="none"> <path d="M1020 8986 c0 -18 -16 -23 -105 -31 -38 -3 -86 -12 -105 -19 -19 -8 -73 -29 -120 -47 -262 -100 -499 -338 -599 -599 -18 -47 -39 -99 -46 -116 -7 -17 -16 -66 -20 -110 -4 -43 -11 -84 -16 -90 -5 -6 -8 -1486 -6 -3485 4 -3768 1 -3561 56 -3714 12 -33 25 -69 28 -80 3 -11 12 -29 20 -40 7 -11 13 -25 13 -32 0 -6 14 -32 30 -56 17 -25 30 -49 30 -55 0 -6 3 -12 7 -14 5 -2 21 -21 36 -44 36 -53 178 -195 231 -231 23 -15 42 -31 44 -35 2 -5 8 -8 13 -8 5 0 28 -12 52 -27 86 -56 233 -110 357 -131 86 -14 422 -16 3570 -16 3158 0 3484 2 3570 16 219 38 426 146 588 308 43 44 92 98 108 122 16 24 32 44 37 46 4 2 7 8 7 14 0 6 13 30 30 55 16 24 30 50 30 56 0 7 6 21 14 32 23 34 73 197 80 260 9 83 16 105 32 105 12 0 14 512 14 3470 0 2959 -2 3470 -14 3470 -18 0 -23 14 -31 96 -10 99 -70 272 -129 369 -128 213 -326 384 -536 464 -47 18 -101 39 -120 46 -19 8 -66 17 -105 20 -88 8 -105 13 -105 31 0 12 -465 14 -3470 14 -3005 0 -3470 -2 -3470 -14z m955 -946 c69 -9 161 -31 200 -49 80 -35 127 -60 176 -93 59 -40 178 -159 201 -201 43 -80 87 -179 101 -227 14 -50 30 -176 29 -225 -1 -66 -23 -220 -32 -229 -5 -5 -10 -18 -10 -27 0 -19 -50 -120 -92 -185 -64 -99 -202 -213 -318 -263 -30 -13 -69 -30 -87 -37 -17 -8 -39 -14 -50 -14 -10 0 -40 -7 -67 -15 -80 -24 -345 -21 -449 6 -45 12 -86 25 -91 30 -6 5 -18 9 -28 9 -45 0 -207 106 -281 184 -55 58 -147 192 -147 216 0 8 -7 24 -15 34 -8 11 -15 30 -15 41 0 12 -7 37 -16 55 -25 48 -25 352 0 400 9 18 16 41 16 52 0 27 58 144 104 212 38 55 161 176 179 176 5 0 23 11 40 24 73 54 232 112 347 126 82 10 226 10 305 0z m4530 -2081 c28 -5 83 -13 123 -19 40 -5 88 -14 105 -19 18 -5 66 -19 107 -32 41 -12 79 -26 85 -30 5 -5 17 -9 26 -9 9 0 44 -13 77 -30 34 -16 64 -30 67 -30 4 0 26 -13 50 -29 24 -16 53 -32 64 -36 12 -3 21 -11 21 -16 0 -5 5 -9 11 -9 15 0 156 -110 219 -172 136 -133 257 -304 332 -468 57 -124 68 -150 68 -162 0 -8 4 -18 9 -23 6 -6 14 -28 20 -50 5 -22 14 -53 20 -70 10 -30 28 -97 50 -190 7 -27 17 -84 22 -125 5 -41 14 -97 20 -125 16 -71 25 -2965 9 -2994 l-11 -21 -752 2 -752 3 -6 1290 c-6 1363 -6 1364 -53 1575 -56 252 -212 455 -406 528 -134 51 -328 66 -457 36 -88 -20 -171 -48 -186 -63 -6 -6 -15 -11 -20 -11 -15 0 -128 -79 -171 -119 -48 -46 -151 -179 -160 -208 -4 -13 -12 -23 -17 -23 -5 0 -9 -7 -9 -16 0 -8 -5 -25 -12 -37 -23 -41 -39 -92 -55 -177 -14 -75 -17 -246 -22 -1430 l-6 -1345 -749 -3 c-494 -1 -753 1 -761 8 -16 14 -10 4527 7 4547 16 19 1481 19 1497 0 7 -9 12 -112 13 -313 l3 -299 25 40 c23 37 29 47 55 78 6 7 28 35 50 62 81 102 131 150 270 258 6 4 21 16 34 27 13 11 30 20 38 20 7 0 13 4 13 8 0 5 48 33 108 62 59 29 119 59 134 66 14 8 35 14 46 14 12 0 23 4 26 9 4 5 25 12 49 16 23 4 50 12 60 17 10 5 52 14 95 19 42 6 97 14 122 18 64 12 395 12 455 0z m-3936 -103 c8 -10 10 -613 9 -2282 l-3 -2269 -749 -3 c-545 -1 -753 1 -762 9 -12 10 -14 378 -14 2270 0 2039 2 2259 16 2273 14 14 96 16 753 16 609 0 741 -2 750 -14z"/> </g> </svg> 